# xmcd
#
# Track frame offsets: 
#        150
#        27246
#        50609
#        78847
#        103072
#
# Disc length: 1923 seconds
#
# Revision: 0
# Processed by: cddbd v1.5.2PL0 Copyright (c) Steve Scherf et al.
# Submitted via: ExactAudioCopy v1.0b3
#
DISCID=35078105
DTITLE=Thirsty Perch Blues Band - City Lights EP
DYEAR=2012
DGENRE=Blues
TTITLE0=City Lights
TTITLE1=Raining Love
TTITLE2=Cool Little Baby
TTITLE3=Changes
TTITLE4=When You Coming Home
EXTD=
EXTT0=
EXTT1=
EXTT2=
EXTT3=
EXTT4=
PLAYORDER=
